<svg width="24" height="24" viewBox="0 0 24 24" fill="none" xmlns="http://www.w3.org/2000/svg">
<g clip-path="url(#clip0_45_2)">
<path d="M0 12C0 8.8174 1.26428 5.76516 3.51472 3.51472C5.76516 1.26428 8.8174 0 12 0C15.1826 0 18.2348 1.26428 20.4853 3.51472C22.7357 5.76516 24 8.8174 24 12C24 15.1826 22.7357 18.2348 20.4853 20.4853C18.2348 22.7357 15.1826 24 12 24C8.8174 24 5.76516 22.7357 3.51472 20.4853C1.26428 18.2348 0 15.1826 0 12ZM15 16.5C15 15.2391 14.2266 14.1609 13.125 13.7203V4.125C13.125 3.50156 12.6234 3 12 3C11.3766 3 10.875 3.50156 10.875 4.125V13.7203C9.77344 14.1656 9 15.2438 9 16.5C9 18.1547 10.3453 19.5 12 19.5C13.6547 19.5 15 18.1547 15 16.5ZM6.75 8.25C7.14782 8.25 7.52936 8.09196 7.81066 7.81066C8.09196 7.52936 8.25 7.14782 8.25 6.75C8.25 6.35218 8.09196 5.97064 7.81066 5.68934C7.52936 5.40804 7.14782 5.25 6.75 5.25C6.35218 5.25 5.97064 5.40804 5.68934 5.68934C5.40804 5.97064 5.25 6.35218 5.25 6.75C5.25 7.14782 5.40804 7.52936 5.68934 7.81066C5.97064 8.09196 6.35218 8.25 6.75 8.25ZM6 12C6 11.6022 5.84196 11.2206 5.56066 10.9393C5.27936 10.658 4.89782 10.5 4.5 10.5C4.10218 10.5 3.72064 10.658 3.43934 10.9393C3.15804 11.2206 3 11.6022 3 12C3 12.3978 3.15804 12.7794 3.43934 13.0607C3.72064 13.342 4.10218 13.5 4.5 13.5C4.89782 13.5 5.27936 13.342 5.56066 13.0607C5.84196 12.7794 6 12.3978 6 12ZM19.5 13.5C19.8978 13.5 20.2794 13.342 20.5607 13.0607C20.842 12.7794 21 12.3978 21 12C21 11.6022 20.842 11.2206 20.5607 10.9393C20.2794 10.658 19.8978 10.5 19.5 10.5C19.1022 10.5 18.7206 10.658 18.4393 10.9393C18.158 11.2206 18 11.6022 18 12C18 12.3978 18.158 12.7794 18.4393 13.0607C18.7206 13.342 19.1022 13.5 19.5 13.5ZM18.75 6.75C18.75 6.35218 18.592 5.97064 18.3107 5.68934C18.0294 5.40804 17.6478 5.25 17.25 5.25C16.8522 5.25 16.4706 5.40804 16.1893 5.68934C15.908 5.97064 15.75 6.35218 15.75 6.75C15.75 7.14782 15.908 7.52936 16.1893 7.81066C16.4706 8.09196 16.8522 8.25 17.25 8.25C17.6478 8.25 18.0294 8.09196 18.3107 7.81066C18.592 7.52936 18.75 7.14782 18.75 6.75Z" fill="#2A6BFA"/>
</g>
<defs>
<clipPath id="clip0_45_2">
<rect width="24" height="24" fill="white"/>
</clipPath>
</defs>
</svg>
