<svg width="24" height="24" viewBox="0 0 24 24" fill="none" xmlns="http://www.w3.org/2000/svg">
<g clip-path="url(#clip0_46_4)">
<path d="M0 12C0 8.8174 1.26428 5.76516 3.51472 3.51472C5.76516 1.26428 8.8174 0 12 0C15.1826 0 18.2348 1.26428 20.4853 3.51472C22.7357 5.76516 24 8.8174 24 12C24 15.1826 22.7357 18.2348 20.4853 20.4853C18.2348 22.7357 15.1826 24 12 24C8.8174 24 5.76516 22.7357 3.51472 20.4853C1.26428 18.2348 0 15.1826 0 12ZM15 16.5C15 15.2391 14.2266 14.1609 13.125 13.7203V4.125C13.125 3.50156 12.6234 3 12 3C11.3766 3 10.875 3.50156 10.875 4.125V13.7203C9.77344 14.1656 9 15.2438 9 16.5C9 18.1547 10.3453 19.5 12 19.5C13.6547 19.5 15 18.1547 15 16.5Z" fill="white"/>
</g>
<defs>
<clipPath id="clip0_46_4">
<rect width="24" height="24" fill="white"/>
</clipPath>
</defs>
</svg>
